<svg id="visual" viewBox="0 0 900 300" width="900" height="300" xmlns="http://www.w3.org/2000/svg" xmlns:xlink="http://www.w3.org/1999/xlink" version="1.1"><rect x="0" y="0" width="900" height="300" fill="#F7FAFC"></rect><path d="M0 172L21.5 171.7C43 171.3 86 170.7 128.8 165.3C171.7 160 214.3 150 257.2 142.8C300 135.7 343 131.3 385.8 132C428.7 132.7 471.3 138.3 514.2 149.5C557 160.7 600 177.3 642.8 174.5C685.7 171.7 728.3 149.3 771.2 138.8C814 128.3 857 129.7 878.5 130.3L900 131L900 0L878.5 0C857 0 814 0 771.2 0C728.3 0 685.7 0 642.8 0C600 0 557 0 514.2 0C471.3 0 428.7 0 385.8 0C343 0 300 0 257.2 0C214.3 0 171.7 0 128.8 0C86 0 43 0 21.5 0L0 0Z" fill="#0071b3"></path><path d="M0 141L21.5 142C43 143 86 145 128.8 139.3C171.7 133.7 214.3 120.3 257.2 112C300 103.7 343 100.3 385.8 108.8C428.7 117.3 471.3 137.7 514.2 139.7C557 141.7 600 125.3 642.8 116.8C685.7 108.3 728.3 107.7 771.2 106.8C814 106 857 105 878.5 104.5L900 104L900 0L878.5 0C857 0 814 0 771.2 0C728.3 0 685.7 0 642.8 0C600 0 557 0 514.2 0C471.3 0 428.7 0 385.8 0C343 0 300 0 257.2 0C214.3 0 171.7 0 128.8 0C86 0 43 0 21.5 0L0 0Z" fill="#19639a"></path><path d="M0 73L21.5 78.3C43 83.7 86 94.3 128.8 95.5C171.7 96.7 214.3 88.3 257.2 86.2C300 84 343 88 385.8 93.8C428.7 99.7 471.3 107.3 514.2 112.5C557 117.7 600 120.3 642.8 120.8C685.7 121.3 728.3 119.7 771.2 118.8C814 118 857 118 878.5 118L900 118L900 0L878.5 0C857 0 814 0 771.2 0C728.3 0 685.7 0 642.8 0C600 0 557 0 514.2 0C471.3 0 428.7 0 385.8 0C343 0 300 0 257.2 0C214.3 0 171.7 0 128.8 0C86 0 43 0 21.5 0L0 0Z" fill="#215582"></path><path d="M0 83L21.5 83.7C43 84.3 86 85.7 128.8 81.8C171.7 78 214.3 69 257.2 66.2C300 63.3 343 66.7 385.8 69.5C428.7 72.3 471.3 74.7 514.2 73.2C557 71.7 600 66.3 642.8 68.5C685.7 70.7 728.3 80.3 771.2 80.5C814 80.7 857 71.3 878.5 66.7L900 62L900 0L878.5 0C857 0 814 0 771.2 0C728.3 0 685.7 0 642.8 0C600 0 557 0 514.2 0C471.3 0 428.7 0 385.8 0C343 0 300 0 257.2 0C214.3 0 171.7 0 128.8 0C86 0 43 0 21.5 0L0 0Z" fill="#24486b"></path><path d="M0 27L21.5 27.5C43 28 86 29 128.8 32.8C171.7 36.7 214.3 43.3 257.2 45.2C300 47 343 44 385.8 44.2C428.7 44.3 471.3 47.7 514.2 45.8C557 44 600 37 642.8 34.3C685.7 31.7 728.3 33.3 771.2 36.7C814 40 857 45 878.5 47.5L900 50L900 0L878.5 0C857 0 814 0 771.2 0C728.3 0 685.7 0 642.8 0C600 0 557 0 514.2 0C471.3 0 428.7 0 385.8 0C343 0 300 0 257.2 0C214.3 0 171.7 0 128.8 0C86 0 43 0 21.5 0L0 0Z" fill="#243b54"></path></svg>