<svg id="visual" viewBox="0 0 900 600" width="900" height="600"
  xmlns="http://www.w3.org/2000/svg"
  xmlns:xlink="http://www.w3.org/1999/xlink" version="1.1">
  <rect x="0" y="0" width="900" height="600" fill="#E6EEF5"></rect>
  <path d="M0 85L13.3 83.8C26.7 82.7 53.3 80.3 80 72.3C106.7 64.3 133.3 50.7 160 49.5C186.7 48.3 213.3 59.7 240 64C266.7 68.3 293.3 65.7 320 68.3C346.7 71 373.3 79 400 81.5C426.7 84 453.3 81 480 72.5C506.7 64 533.3 50 560 43C586.7 36 613.3 36 640 43.7C666.7 51.3 693.3 66.7 720 69.5C746.7 72.3 773.3 62.7 800 57.5C826.7 52.3 853.3 51.7 880 51.3C906.7 51 933.3 51 946.7 51L960 51L960 0L946.7 0C933.3 0 906.7 0 880 0C853.3 0 826.7 0 800 0C773.3 0 746.7 0 720 0C693.3 0 666.7 0 640 0C613.3 0 586.7 0 560 0C533.3 0 506.7 0 480 0C453.3 0 426.7 0 400 0C373.3 0 346.7 0 320 0C293.3 0 266.7 0 240 0C213.3 0 186.7 0 160 0C133.3 0 106.7 0 80 0C53.3 0 26.7 0 13.3 0L0 0Z" fill="#46bcab"></path>
  <path d="M0 55L13.3 55.7C26.7 56.3 53.3 57.7 80 56.7C106.7 55.7 133.3 52.3 160 47.7C186.7 43 213.3 37 240 40.5C266.7 44 293.3 57 320 61C346.7 65 373.3 60 400 56.2C426.7 52.3 453.3 49.7 480 46.3C506.7 43 533.3 39 560 42C586.7 45 613.3 55 640 57.5C666.7 60 693.3 55 720 53C746.7 51 773.3 52 800 55C826.7 58 853.3 63 880 59.8C906.7 56.7 933.3 45.3 946.7 39.7L960 34L960 0L946.7 0C933.3 0 906.7 0 880 0C853.3 0 826.7 0 800 0C773.3 0 746.7 0 720 0C693.3 0 666.7 0 640 0C613.3 0 586.7 0 560 0C533.3 0 506.7 0 480 0C453.3 0 426.7 0 400 0C373.3 0 346.7 0 320 0C293.3 0 266.7 0 240 0C213.3 0 186.7 0 160 0C133.3 0 106.7 0 80 0C53.3 0 26.7 0 13.3 0L0 0Z" fill="#1d9ba1"></path>
  <path d="M0 22L13.3 23.3C26.7 24.7 53.3 27.3 80 28.2C106.7 29 133.3 28 160 27.2C186.7 26.3 213.3 25.7 240 29C266.7 32.3 293.3 39.7 320 41.7C346.7 43.7 373.3 40.3 400 38.3C426.7 36.3 453.3 35.7 480 34.3C506.7 33 533.3 31 560 30.5C586.7 30 613.3 31 640 31C666.7 31 693.3 30 720 33.8C746.7 37.7 773.3 46.3 800 48.2C826.7 50 853.3 45 880 40.8C906.7 36.7 933.3 33.3 946.7 31.7L960 30L960 0L946.7 0C933.3 0 906.7 0 880 0C853.3 0 826.7 0 800 0C773.3 0 746.7 0 720 0C693.3 0 666.7 0 640 0C613.3 0 586.7 0 560 0C533.3 0 506.7 0 480 0C453.3 0 426.7 0 400 0C373.3 0 346.7 0 320 0C293.3 0 266.7 0 240 0C213.3 0 186.7 0 160 0C133.3 0 106.7 0 80 0C53.3 0 26.7 0 13.3 0L0 0Z" fill="#127a8f"></path>
  <path d="M0 36L13.3 34.7C26.7 33.3 53.3 30.7 80 28.5C106.7 26.3 133.3 24.7 160 25.3C186.7 26 213.3 29 240 28.2C266.7 27.3 293.3 22.7 320 24.2C346.7 25.7 373.3 33.3 400 32.8C426.7 32.3 453.3 23.7 480 20C506.7 16.3 533.3 17.7 560 20.5C586.7 23.3 613.3 27.7 640 29.5C666.7 31.3 693.3 30.7 720 28.7C746.7 26.7 773.3 23.3 800 23.2C826.7 23 853.3 26 880 28.3C906.7 30.7 933.3 32.3 946.7 33.2L960 34L960 0L946.7 0C933.3 0 906.7 0 880 0C853.3 0 826.7 0 800 0C773.3 0 746.7 0 720 0C693.3 0 666.7 0 640 0C613.3 0 586.7 0 560 0C533.3 0 506.7 0 480 0C453.3 0 426.7 0 400 0C373.3 0 346.7 0 320 0C293.3 0 266.7 0 240 0C213.3 0 186.7 0 160 0C133.3 0 106.7 0 80 0C53.3 0 26.7 0 13.3 0L0 0Z" fill="#1f5974"></path>
  <path d="M0 14L13.3 14.8C26.7 15.7 53.3 17.3 80 16.5C106.7 15.7 133.3 12.3 160 10.5C186.7 8.7 213.3 8.3 240 9.7C266.7 11 293.3 14 320 17.3C346.7 20.7 373.3 24.3 400 25.5C426.7 26.7 453.3 25.3 480 23.7C506.7 22 533.3 20 560 17.2C586.7 14.3 613.3 10.7 640 10.7C666.7 10.7 693.3 14.3 720 15C746.7 15.7 773.3 13.3 800 13C826.7 12.7 853.3 14.3 880 16.5C906.7 18.7 933.3 21.3 946.7 22.7L960 24L960 0L946.7 0C933.3 0 906.7 0 880 0C853.3 0 826.7 0 800 0C773.3 0 746.7 0 720 0C693.3 0 666.7 0 640 0C613.3 0 586.7 0 560 0C533.3 0 506.7 0 480 0C453.3 0 426.7 0 400 0C373.3 0 346.7 0 320 0C293.3 0 266.7 0 240 0C213.3 0 186.7 0 160 0C133.3 0 106.7 0 80 0C53.3 0 26.7 0 13.3 0L0 0Z" fill="#243b54"></path>
</svg>